<?xml version="1.0" encoding="iso-8859-1"?>
<!-- Generator: Adobe Illustrator 21.0.0, SVG Export Plug-In . SVG Version: 6.00 Build 0)  -->
<svg version="1.1" id="Capa_1" xmlns="http://www.w3.org/2000/svg" xmlns:xlink="http://www.w3.org/1999/xlink" x="0px" y="0px"
	 viewBox="0 0 512 512" style="enable-background:new 0 0 512 512;" xml:space="preserve">
<g>
	<g>
		<path d="M123.928,117.048V437h264.144V117.048H123.928z M343.036,312.191H168.964v-30h174.072V312.191z M343.036,252.144H168.964
			v-30h174.072V252.144z M343.036,192.096H168.964v-30h174.072V192.096z"/>
	</g>
</g>
<g>
	<g>
		<polygon points="373.048,42 373.048,87.048 418.072,87.048 418.072,437 418.072,467 388.072,467 123.928,467 93.928,467 
			93.928,437 93.928,87.048 138.952,87.048 138.952,42 48.88,42 48.88,512 463.12,512 463.12,42 		"/>
	</g>
</g>
<g>
	<g>
		<path d="M310.997,42C304.396,17.823,282.241,0,256,0c-26.241,0-48.397,17.823-54.998,42h-32.05v45.048h174.096V42H310.997z"/>
	</g>
</g>
<g>
</g>
<g>
</g>
<g>
</g>
<g>
</g>
<g>
</g>
<g>
</g>
<g>
</g>
<g>
</g>
<g>
</g>
<g>
</g>
<g>
</g>
<g>
</g>
<g>
</g>
<g>
</g>
<g>
</g>
</svg>
